<?xml version="1.0" encoding="UTF-8"?>
<svg width="18px" height="18px" viewBox="0 0 18 18" version="1.1" xmlns="http://www.w3.org/2000/svg" xmlns:xlink="http://www.w3.org/1999/xlink">
    <title>facebook</title>
    <g id="sitio" stroke="none" stroke-width="1" fill="none" fill-rule="evenodd">
        <path d="M10.406126,18 C14.7086911,17.320158 17.999876,13.5741276 17.999876,9.05476673 C17.999876,4.05273834 13.9716502,0 8.99987602,0 C4.02810183,0 -0.000123977479,4.05273834 -0.000123977479,9.05476673 C-0.000123977479,13.5741276 3.29106097,17.320158 7.59362602,18 L7.59362602,11.6722672 L5.3073357,11.6722672 L5.3073357,9.05476673 L7.59362602,9.05476673 L7.59362602,7.05981 C7.59362602,4.79062738 8.93636796,3.53719653 10.9929377,3.53719653 C11.9778443,3.53719653 13.0077948,3.71390482 13.0077948,3.71390482 L13.0077948,5.94108535 L11.8726236,5.94108535 C10.7548888,5.94108535 10.406126,6.63918294 10.406126,7.35517954 L10.406126,9.05476673 L12.9021843,9.05476673 L12.5029908,11.6722672 L10.406126,11.6722672 L10.406126,18 Z" id="facebook" fill="#44ACF2" fill-rule="nonzero"></path>
    </g>
</svg>