<?xml version="1.0" encoding="UTF-8"?>
<svg width="20px" height="17px" viewBox="0 0 20 17" version="1.1" xmlns="http://www.w3.org/2000/svg" xmlns:xlink="http://www.w3.org/1999/xlink">
    <title>twitter</title>
    <g id="sitio" stroke="none" stroke-width="1" fill="none" fill-rule="evenodd">
        <path d="M6.29438807,16.2435907 C13.8324789,16.2435907 17.9568053,9.99993801 17.9568053,4.58121161 C17.9568053,4.40356158 17.9568053,4.22583526 17.9441024,4.04818523 C18.7435848,3.4644235 19.4415964,2.74108233 19.999876,1.92893522 C19.2638701,2.24616469 18.4643877,2.47462636 17.6394996,2.5634323 C18.4897173,2.0558499 19.1369173,1.25636755 19.4415201,0.304564704 C18.6546644,0.77411467 17.7663761,1.11674996 16.8400172,1.29439999 C16.0912321,0.494917643 15.0252938,0 13.8450674,0 C11.573535,0 9.74610866,1.84009113 9.74610866,4.09895873 C9.74610866,4.41622635 9.78417925,4.73345582 9.84761751,5.03802052 C6.44667042,4.86033235 3.41365,3.23599998 1.39590884,0.748708847 C1.04053249,1.35783825 0.837552935,2.05581175 0.837552935,2.81722351 C0.837552935,4.23853817 1.56085596,5.49486758 2.66490301,6.23091166 C1.99237348,6.20558213 1.35780011,6.01522919 0.812147112,5.71066449 L0.812147112,5.76139984 C0.812147112,7.75377332 2.22079701,9.40347337 4.09895873,9.7842174 C3.75636159,9.87302334 3.38832047,9.92379684 3.02031751,9.92379684 C2.75378524,9.92379684 2.5,9.89842916 2.24616469,9.86035857 C2.76648816,11.4847291 4.27664691,12.6649173 6.07866745,12.703026 C4.67001755,13.8070731 2.90602945,14.4542731 0.989835287,14.4542731 C0.647199995,14.4542731 0.329970527,14.4415702 0,14.4035377 C1.81472346,15.5709849 3.97204406,16.2435907 6.29438807,16.2435907 Z" id="twitter" fill="#44B4F2" fill-rule="nonzero"></path>
    </g>
</svg>